# xmcd
#
# Track frame offsets: 
#        150
#        14968
#        34150
#        52872
#        73195
#        93325
#        106448
#        125208
#        147091
#        161459
#        182159
#        198640
#        220859
#        239442
#        256740
#        275938
#        297101
#        308860
#        328460
#        345972
#
# Disc length: 4780 seconds
#
# Revision: 3
# Processed by: cddbd v1.5.2PL0 Copyright (c) Steve Scherf et al.
# Submitted via: ExactAudioCopy v1.3
#
DISCID=3f12aa14
DTITLE=Various Artist - Akella Presents - vol.83 - Country-Blues  CD1
DYEAR=2016
DGENRE=Blues
TTITLE0=Malcolm Holcombe - Sweet Georgia
TTITLE1=Bargel and Heuser - All Talker And Stalker
TTITLE2=Thorbjorn Risager - Back Home
TTITLE3=Danny Brooks - All God's Children
TTITLE4=Tim Wagoner - Late Night Gumbo Party
TTITLE5=John Fogerty and Zac Brown - Bad Moon Rising
TTITLE6=John Mayer - Queen of California
TTITLE7=Blue Henry - I'll See You There
TTITLE8=Mudcrutch - Save Your Water
TTITLE9=Lucinda Williams - Right In Time
TTITLE10=The Stumble - One True Rock
TTITLE11=John Illsley - In The Darkness
TTITLE12=Grant Lyle - From the Hills
TTITLE13=Bill Wharton and The Ingredients - Bayou Tango
TTITLE14=Mississippi Shakedown - Everybody Who Prays Don't Go To Heave
TTITLE14=n
TTITLE15=Larry Garner - The Haves And The Have Nots
TTITLE16=Don Henley - Where I Am Now
TTITLE17=Christine Lakeland - I Think I'm Losing My Mind
TTITLE18=Eric Clapton - Freight Train
TTITLE19=Peter Karp - Goodbye Baby
EXTD=
EXTT0=
EXTT1=
EXTT2=
EXTT3=
EXTT4=
EXTT5=
EXTT6=
EXTT7=
EXTT8=
EXTT9=
EXTT10=
EXTT11=
EXTT12=
EXTT13=
EXTT14=
EXTT15=
EXTT16=
EXTT17=
EXTT18=
EXTT19=
PLAYORDER=
